mtllib plant.mtl 
g default 
v -0.05 0 -0.05
v -0.05 3 -0.05
v 0.05 0 -0.05
v -0.05 3 -0.05
v 0.05 3 -0.05
v 0.05 0 -0.05
v 0.05 0 -0.05
v 0.05 3 -0.05
v 0 0 0.05
v 0.05 3 -0.05
v 0 3 0.05
v 0 0 0.05
v 0 0 0.05
v 0 3 0.05
v -0.05 0 -0.05
v 0 3 0.05
v -0.05 3 -0.05
v -0.05 0 -0.05

v -0.05 3 -0.05
v -0.05 6 -0.05
v 0.05 3 -0.05
v -0.05 6 -0.05
v 0.05 6 -0.05
v 0.05 3 -0.05
v 0.05 3 -0.05
v 0.05 6 -0.05
v 0 3 0.05
v 0.05 6 -0.05
v 0 6 0.05
v 0 3 0.05
v 0 3 0.05
v 0 6 0.05
v -0.05 3 -0.05
v 0 6 0.05
v -0.05 6 -0.05
v -0.05 3 -0.05

v -0.0808504 6.05 0.0310356
v -0.172204 5.38129 0.870373
v 0.125437 5.52163 1.41966
v -0.0808504 6.05 0.0310356
v 0.125437 5.52163 1.41966
v 0.285553 6.01422 1.0432
v 0.285553 6.01422 1.0432
v 0.125437 5.52163 1.41966
v -0.0808504 6.05 0.0310356
v 0.125437 5.52163 1.41966
v -0.172204 5.38129 0.870373
v -0.0808504 6.05 0.0310356

v -0.0808504 6.05 0.0310356
v 0.357151 6.15071 1.00982
v 0.722497 6.65986 1.14131
v -0.0808504 6.05 0.0310356
v 0.722497 6.65986 1.14131
v 0.552278 6.76244 0.532617
v 0.552278 6.76244 0.532617
v 0.722497 6.65986 1.14131
v -0.0808504 6.05 0.0310356
v 0.722497 6.65986 1.14131
v 0.357151 6.15071 1.00982
v -0.0808504 6.05 0.0310356

v -0.0808504 6.05 0.0310356
v 0.549825 6.84272 0.396893
v 0.702042 7.3293 0.00951473
v -0.0808504 6.05 0.0310356
v 0.702042 7.3293 0.00951473
v 0.332332 6.96302 -0.363517
v 0.332332 6.96302 -0.363517
v 0.702042 7.3293 0.00951473
v -0.0808504 6.05 0.0310356
v 0.702042 7.3293 0.00951473
v 0.549825 6.84272 0.396893
v -0.0808504 6.05 0.0310356

v -0.0808504 6.05 0.0310356
v 0.257712 6.92538 -0.497256
v 0.0797961 7.01537 -1.10573
v -0.0808504 6.05 0.0310356
v 0.0797961 7.01537 -1.10573
v -0.205218 6.46179 -0.956367
v -0.205218 6.46179 -0.956367
v 0.0797961 7.01537 -1.10573
v -0.0808504 6.05 0.0310356
v 0.0797961 7.01537 -1.10573
v 0.257712 6.92538 -0.497256
v -0.0808504 6.05 0.0310356

v -0.0808504 6.05 0.0310356
v -0.294645 6.33516 -0.98532
v -0.665935 5.95938 -1.34717
v -0.0808504 6.05 0.0310356
v -0.665935 5.95938 -1.34717
v -0.647169 5.64402 -0.790223
v -0.647169 5.64402 -0.790223
v -0.665935 5.95938 -1.34717
v -0.0808504 6.05 0.0310356
v -0.665935 5.95938 -1.34717
v -0.294645 6.33516 -0.98532
v -0.0808504 6.05 0.0310356

v -0.0808504 6.05 0.0310356
v -0.682664 5.52574 -0.692135
v -0.961926 4.97305 -0.529217
v -0.0808504 6.05 0.0310356
v -0.961926 4.97305 -0.529217
v -0.653804 5.13832 0.0072027
v -0.653804 5.13832 0.0072027
v -0.961926 4.97305 -0.529217
v -0.0808504 6.05 0.0310356
v -0.961926 4.97305 -0.529217
v -0.682664 5.52574 -0.692135
v -0.0808504 6.05 0.0310356

v -0.0808504 6.05 0.0310356
v -0.608082 5.11931 0.156935
v -0.580654 4.81454 0.719395
v -0.0808504 6.05 0.0310356
v -0.580654 4.81454 0.719395
v -0.220023 5.33341 0.822949
v -0.220023 5.33341 0.822949
v -0.580654 4.81454 0.719395
v -0.0808504 6.05 0.0310356
v -0.580654 4.81454 0.719395
v -0.608082 5.11931 0.156935
v -0.0808504 6.05 0.0310356

v 0 3 0
v -0.640075 3 0.39988
v 0.07896 3 0.750577
v -0.640075 3 0.39988
v -0.876743 3 1.79759
v 0.07896 3 0.750577
v -0.876743 3 1.79759
v -0.640075 3 0.39988
v 0.07896 3 0.750577
v -0.640075 3 0.39988
v 0 3 0
v 0.07896 3 0.750577

v 0 3 0
v 0.59477 3 -0.464595
v -0.156984 3 -0.738211
v 0.59477 3 -0.464595
v 0.68404 3 -1.87938
v -0.156984 3 -0.738211
v 0.68404 3 -1.87938
v 0.59477 3 -0.464595
v -0.156984 3 -0.738211
v 0.59477 3 -0.464595
v 0 3 0
v -0.156984 3 -0.738211

vt 0 1
vt 0 0
vt 1 1
vt 0 0
vt 1 0
vt 1 1
vt 0 1
vt 0 0
vt 1 1
vt 0 0
vt 1 0
vt 1 1
vt 0 1
vt 0 0
vt 1 1
vt 0 0
vt 1 0
vt 1 1
vt 0 1
vt 0 0
vt 1 1
vt 0 0
vt 1 0
vt 1 1
vt 0 1
vt 0 0
vt 1 1
vt 0 0
vt 1 0
vt 1 1
vt 0 1
vt 0 0
vt 1 1
vt 0 0
vt 1 0
vt 1 1
vt 0.5 1
vt 0 0.3
vt 0.5 0
vt 0.5 1
vt 0.5 0
vt 1 0.3
vt 1 0.3
vt 0.5 0
vt 0.5 1
vt 0.5 0
vt 0 0.3
vt 0.5 1
vt 0.5 1
vt 0 0.3
vt 0.5 0
vt 0.5 1
vt 0.5 0
vt 1 0.3
vt 1 0.3
vt 0.5 0
vt 0.5 1
vt 0.5 0
vt 0 0.3
vt 0.5 1
vt 0.5 1
vt 0 0.3
vt 0.5 0
vt 0.5 1
vt 0.5 0
vt 1 0.3
vt 1 0.3
vt 0.5 0
vt 0.5 1
vt 0.5 0
vt 0 0.3
vt 0.5 1
vt 0.5 1
vt 0 0.3
vt 0.5 0
vt 0.5 1
vt 0.5 0
vt 1 0.3
vt 1 0.3
vt 0.5 0
vt 0.5 1
vt 0.5 0
vt 0 0.3
vt 0.5 1
vt 0.5 1
vt 0 0.3
vt 0.5 0
vt 0.5 1
vt 0.5 0
vt 1 0.3
vt 1 0.3
vt 0.5 0
vt 0.5 1
vt 0.5 0
vt 0 0.3
vt 0.5 1
vt 0.5 1
vt 0 0.3
vt 0.5 0
vt 0.5 1
vt 0.5 0
vt 1 0.3
vt 1 0.3
vt 0.5 0
vt 0.5 1
vt 0.5 0
vt 0 0.3
vt 0.5 1
vt 0.5 1
vt 0 0.3
vt 0.5 0
vt 0.5 1
vt 0.5 0
vt 1 0.3
vt 1 0.3
vt 0.5 0
vt 0.5 1
vt 0.5 0
vt 0 0.3
vt 0.5 1
vt 0.5 1
vt 0 0.7
vt 1 0.7
vt 0 0.7
vt 0.5 0
vt 1 0.7
vt 0.5 0
vt 0 0.7
vt 1 0.7
vt 0 0.7
vt 0.5 1
vt 1 0.7
vt 0.5 1
vt 0 0.7
vt 1 0.7
vt 0 0.7
vt 0.5 0
vt 1 0.7
vt 0.5 0
vt 0 0.7
vt 1 0.7
vt 0 0.7
vt 0.5 1
vt 1 0.7
vn 0 0 -0.3
vn 0 0 -0.3
vn 0 0 -0.3
vn 0 0 -0.3
vn 0 0 -0.3
vn 0 0 -0.3
vn 0.2 0 0.1
vn 0.2 0 0.1
vn 0.2 0 0.1
vn 0.2 0 0.1
vn 0.2 0 0.1
vn 0.2 0 0.1
vn -0.2 0 0.1
vn -0.2 0 0.1
vn -0.2 0 0.1
vn -0.2 0 0.1
vn -0.2 0 0.1
vn -0.2 0 0.1
vn 0 0 -0.3
vn 0 0 -0.3
vn 0 0 -0.3
vn 0 0 -0.3
vn 0 0 -0.3
vn 0 0 -0.3
vn 0.2 0 0.1
vn 0.2 0 0.1
vn 0.2 0 0.1
vn 0.2 0 0.1
vn 0.2 0 0.1
vn 0.2 0 0.1
vn -0.2 0 0.1
vn -0.2 0 0.1
vn -0.2 0 0.1
vn -0.2 0 0.1
vn -0.2 0 0.1
vn -0.2 0 0.1
vn -0.808504 0.5 0.310356
vn -0.808504 0.5 0.310356
vn -0.808504 0.5 0.310356
vn -0.808504 0.5 0.310356
vn -0.808504 0.5 0.310356
vn -0.808504 0.5 0.310356
vn 0.808504 -0.5 -0.310356
vn 0.808504 -0.5 -0.310356
vn 0.808504 -0.5 -0.310356
vn 0.808504 -0.5 -0.310356
vn 0.808504 -0.5 -0.310356
vn 0.808504 -0.5 -0.310356
vn -0.808504 0.5 0.310356
vn -0.808504 0.5 0.310356
vn -0.808504 0.5 0.310356
vn -0.808504 0.5 0.310356
vn -0.808504 0.5 0.310356
vn -0.808504 0.5 0.310356
vn 0.808504 -0.5 -0.310356
vn 0.808504 -0.5 -0.310356
vn 0.808504 -0.5 -0.310356
vn 0.808504 -0.5 -0.310356
vn 0.808504 -0.5 -0.310356
vn 0.808504 -0.5 -0.310356
vn -0.808504 0.5 0.310356
vn -0.808504 0.5 0.310356
vn -0.808504 0.5 0.310356
vn -0.808504 0.5 0.310356
vn -0.808504 0.5 0.310356
vn -0.808504 0.5 0.310356
vn 0.808504 -0.5 -0.310356
vn 0.808504 -0.5 -0.310356
vn 0.808504 -0.5 -0.310356
vn 0.808504 -0.5 -0.310356
vn 0.808504 -0.5 -0.310356
vn 0.808504 -0.5 -0.310356
vn -0.808504 0.5 0.310356
vn -0.808504 0.5 0.310356
vn -0.808504 0.5 0.310356
vn -0.808504 0.5 0.310356
vn -0.808504 0.5 0.310356
vn -0.808504 0.5 0.310356
vn 0.808504 -0.5 -0.310356
vn 0.808504 -0.5 -0.310356
vn 0.808504 -0.5 -0.310356
vn 0.808504 -0.5 -0.310356
vn 0.808504 -0.5 -0.310356
vn 0.808504 -0.5 -0.310356
vn -0.808504 0.5 0.310356
vn -0.808504 0.5 0.310356
vn -0.808504 0.5 0.310356
vn -0.808504 0.5 0.310356
vn -0.808504 0.5 0.310356
vn -0.808504 0.5 0.310356
vn 0.808504 -0.5 -0.310356
vn 0.808504 -0.5 -0.310356
vn 0.808504 -0.5 -0.310356
vn 0.808504 -0.5 -0.310356
vn 0.808504 -0.5 -0.310356
vn 0.808504 -0.5 -0.310356
vn -0.808504 0.5 0.310356
vn -0.808504 0.5 0.310356
vn -0.808504 0.5 0.310356
vn -0.808504 0.5 0.310356
vn -0.808504 0.5 0.310356
vn -0.808504 0.5 0.310356
vn 0.808504 -0.5 -0.310356
vn 0.808504 -0.5 -0.310356
vn 0.808504 -0.5 -0.310356
vn 0.808504 -0.5 -0.310356
vn 0.808504 -0.5 -0.310356
vn 0.808504 -0.5 -0.310356
vn -0.808504 0.5 0.310356
vn -0.808504 0.5 0.310356
vn -0.808504 0.5 0.310356
vn -0.808504 0.5 0.310356
vn -0.808504 0.5 0.310356
vn -0.808504 0.5 0.310356
vn 0.808504 -0.5 -0.310356
vn 0.808504 -0.5 -0.310356
vn 0.808504 -0.5 -0.310356
vn 0.808504 -0.5 -0.310356
vn 0.808504 -0.5 -0.310356
vn 0.808504 -0.5 -0.310356
vn 0 0.8 0
vn 0 0.8 0
vn 0 0.8 0
vn 0 0.8 0
vn 0 0.8 0
vn 0 0.8 0
vn 0 -0.8 0
vn 0 -0.8 0
vn 0 -0.8 0
vn 0 -0.8 0
vn 0 -0.8 0
vn 0 -0.8 0
vn 0 0.8 0
vn 0 0.8 0
vn 0 0.8 0
vn 0 0.8 0
vn 0 0.8 0
vn 0 0.8 0
vn 0 -0.8 -0
vn 0 -0.8 -0
vn 0 -0.8 -0
vn 0 -0.8 -0
vn 0 -0.8 -0
vn 0 -0.8 -0
s off 
g plant 
usemtl stemMat 
f 1/1/1 2/2/2 3/3/3 
f 4/4/4 5/5/5 6/6/6 
f 7/7/7 8/8/8 9/9/9 
f 10/10/10 11/11/11 12/12/12 
f 13/13/13 14/14/14 15/15/15 
f 16/16/16 17/17/17 18/18/18 
f 19/19/19 20/20/20 21/21/21 
f 22/22/22 23/23/23 24/24/24 
f 25/25/25 26/26/26 27/27/27 
f 28/28/28 29/29/29 30/30/30 
f 31/31/31 32/32/32 33/33/33 
f 34/34/34 35/35/35 36/36/36 
usemtl petalMat 
f 37/37/37 38/38/38 39/39/39 
f 40/40/40 41/41/41 42/42/42 
f 43/43/43 44/44/44 45/45/45 
f 46/46/46 47/47/47 48/48/48 
f 49/49/49 50/50/50 51/51/51 
f 52/52/52 53/53/53 54/54/54 
f 55/55/55 56/56/56 57/57/57 
f 58/58/58 59/59/59 60/60/60 
f 61/61/61 62/62/62 63/63/63 
f 64/64/64 65/65/65 66/66/66 
f 67/67/67 68/68/68 69/69/69 
f 70/70/70 71/71/71 72/72/72 
f 73/73/73 74/74/74 75/75/75 
f 76/76/76 77/77/77 78/78/78 
f 79/79/79 80/80/80 81/81/81 
f 82/82/82 83/83/83 84/84/84 
f 85/85/85 86/86/86 87/87/87 
f 88/88/88 89/89/89 90/90/90 
f 91/91/91 92/92/92 93/93/93 
f 94/94/94 95/95/95 96/96/96 
f 97/97/97 98/98/98 99/99/99 
f 100/100/100 101/101/101 102/102/102 
f 103/103/103 104/104/104 105/105/105 
f 106/106/106 107/107/107 108/108/108 
f 109/109/109 110/110/110 111/111/111 
f 112/112/112 113/113/113 114/114/114 
f 115/115/115 116/116/116 117/117/117 
f 118/118/118 119/119/119 120/120/120 
usemtl leafMat 
f 121/121/121 122/122/122 123/123/123 
f 124/124/124 125/125/125 126/126/126 
f 127/127/127 128/128/128 129/129/129 
f 130/130/130 131/131/131 132/132/132 
f 133/133/133 134/134/134 135/135/135 
f 136/136/136 137/137/137 138/138/138 
f 139/139/139 140/140/140 141/141/141 
f 142/142/142 143/143/143 144/144/144 
