g default 
v 0.0683013 0 0.0183013
v 0.0683013 3 0.0183013
v -0.0183013 0 0.0683013
v 0.0683013 3 0.0183013
v -0.0183013 3 0.0683013
v -0.0183013 0 0.0683013
v -0.0183013 0 0.0683013
v -0.0183013 3 0.0683013
v -0.025 0 -0.0433013
v -0.0183013 3 0.0683013
v -0.025 3 -0.0433013
v -0.025 0 -0.0433013
v -0.025 0 -0.0433013
v -0.025 3 -0.0433013
v 0.0683013 0 0.0183013
v -0.025 3 -0.0433013
v 0.0683013 3 0.0183013
v 0.0683013 0 0.0183013
v 0 3 0
v 0.897271 3.27362 -0.100196
v 0.254483 3.27362 -0.86624
v 0.897271 3.27362 -0.100196
v 1.79962 3.85505 -1.51006
v 0.254483 3.27362 -0.86624
v 1.79962 3.85505 -1.51006
v 0.897271 3.27362 -0.100196
v 0.254483 3.27362 -0.86624
v 0.897271 3.27362 -0.100196
v 0 3 0
v 0.254483 3.27362 -0.86624
v 0 3 0
v 0.483393 3.27362 0.762539
v 0.89013 3.27362 -0.151007
v 0.483393 3.27362 0.762539
v 2.14613 3.85505 0.955519
v 0.89013 3.27362 -0.151007
v 2.14613 3.85505 0.955519
v 0.483393 3.27362 0.762539
v 0.89013 3.27362 -0.151007
v 0.483393 3.27362 0.762539
v 0 3 0
v 0.89013 3.27362 -0.151007
v 0 3 0
v -0.459971 3.27362 0.776892
v 0.538658 3.27362 0.724556
v -0.459971 3.27362 0.776892
v 0.122949 3.85505 2.34601
v 0.538658 3.27362 0.724556
v 0.122949 3.85505 2.34601
v -0.459971 3.27362 0.776892
v 0.538658 3.27362 0.724556
v -0.459971 3.27362 0.776892
v 0 3 0
v 0.538658 3.27362 0.724556
v 0 3 0
v -0.894858 3.27362 -0.11985
v -0.456487 3.27362 0.778944
v -0.894858 3.27362 -0.11985
v -2.11148 3.85505 1.02984
v -0.456487 3.27362 0.778944
v -2.11148 3.85505 1.02984
v -0.894858 3.27362 -0.11985
v -0.456487 3.27362 0.778944
v -0.894858 3.27362 -0.11985
v 0 3 0
v -0.456487 3.27362 0.778944
v 0 3 0
v -0.193438 3.27362 -0.881882
v -0.888096 3.27362 -0.162542
v -0.193438 3.27362 -0.881882
v -1.6899 3.85505 -1.63191
v -0.888096 3.27362 -0.162542
v -1.6899 3.85505 -1.63191
v -0.193438 3.27362 -0.881882
v -0.888096 3.27362 -0.162542
v -0.193438 3.27362 -0.881882
v 0 3 0
v -0.888096 3.27362 -0.162542
vt 0.0 0.0 
vt 0.0 0.0 
vt 0.0 0.0 
vt 0.0 0.0 
vt 0.0 0.0 
vt 0.0 0.0 
vt 0.0 0.0 
vt 0.0 0.0 
vt 0.0 0.0 
vt 0.0 0.0 
vt 0.0 0.0 
vt 0.0 0.0 
vt 0.0 0.0 
vt 0.0 0.0 
vt 0.0 0.0 
vt 0.0 0.0 
vt 0.0 0.0 
vt 0.0 0.0 
vt 0.0 0.0 
vt 0.0 0.0 
vt 0.0 0.0 
vt 0.0 0.0 
vt 0.0 0.0 
vt 0.0 0.0 
vt 0.0 0.0 
vt 0.0 0.0 
vt 0.0 0.0 
vt 0.0 0.0 
vt 0.0 0.0 
vt 0.0 0.0 
vt 0.0 0.0 
vt 0.0 0.0 
vt 0.0 0.0 
vt 0.0 0.0 
vt 0.0 0.0 
vt 0.0 0.0 
vt 0.0 0.0 
vt 0.0 0.0 
vt 0.0 0.0 
vt 0.0 0.0 
vt 0.0 0.0 
vt 0.0 0.0 
vt 0.0 0.0 
vt 0.0 0.0 
vt 0.0 0.0 
vt 0.0 0.0 
vt 0.0 0.0 
vt 0.0 0.0 
vt 0.0 0.0 
vt 0.0 0.0 
vt 0.0 0.0 
vt 0.0 0.0 
vt 0.0 0.0 
vt 0.0 0.0 
vt 0.0 0.0 
vt 0.0 0.0 
vt 0.0 0.0 
vt 0.0 0.0 
vt 0.0 0.0 
vt 0.0 0.0 
vt 0.0 0.0 
vt 0.0 0.0 
vt 0.0 0.0 
vt 0.0 0.0 
vt 0.0 0.0 
vt 0.0 0.0 
vt 0.0 0.0 
vt 0.0 0.0 
vt 0.0 0.0 
vt 0.0 0.0 
vt 0.0 0.0 
vt 0.0 0.0 
vt 0.0 0.0 
vt 0.0 0.0 
vt 0.0 0.0 
vt 0.0 0.0 
vt 0.0 0.0 
vt 0.0 0.0 
vn 0.15 0 0.259808
vn 0.15 0 0.259808
vn 0.15 0 0.259808
vn 0.15 0 0.259808
vn 0.15 0 0.259808
vn 0.15 0 0.259808
vn -0.223205 0 0.0133975
vn -0.223205 0 0.0133975
vn -0.223205 0 0.0133975
vn -0.223205 0 0.0133975
vn -0.223205 0 0.0133975
vn -0.223205 0 0.0133975
vn 0.123205 0 -0.186603
vn 0.123205 0 -0.186603
vn 0.123205 0 -0.186603
vn 0.123205 0 -0.186603
vn 0.123205 0 -0.186603
vn 0.123205 0 -0.186603
vn -0.262003 0.939693 0.219846
vn -0.262003 0.939693 0.219846
vn -0.262003 0.939693 0.219846
vn -0.262003 0.939693 0.219846
vn -0.262003 0.939693 0.219846
vn -0.262003 0.939693 0.219846
vn 0.262003 -0.939693 -0.219846
vn 0.262003 -0.939693 -0.219846
vn 0.262003 -0.939693 -0.219846
vn 0.262003 -0.939693 -0.219846
vn 0.262003 -0.939693 -0.219846
vn 0.262003 -0.939693 -0.219846
vn -0.312451 0.939693 -0.139112
vn -0.312451 0.939693 -0.139112
vn -0.312451 0.939693 -0.139112
vn -0.312451 0.939693 -0.139112
vn -0.312451 0.939693 -0.139112
vn -0.312451 0.939693 -0.139112
vn 0.312451 -0.939693 0.139112
vn 0.312451 -0.939693 0.139112
vn 0.312451 -0.939693 0.139112
vn 0.312451 -0.939693 0.139112
vn 0.312451 -0.939693 0.139112
vn 0.312451 -0.939693 0.139112
vn -0.0178999 0.939693 -0.341551
vn -0.0178999 0.939693 -0.341551
vn -0.0178999 0.939693 -0.341551
vn -0.0178999 0.939693 -0.341551
vn -0.0178999 0.939693 -0.341551
vn -0.0178999 0.939693 -0.341551
vn 0.0178999 -0.939693 0.341551
vn 0.0178999 -0.939693 0.341551
vn 0.0178999 -0.939693 0.341551
vn 0.0178999 -0.939693 0.341551
vn 0.0178999 -0.939693 0.341551
vn 0.0178999 -0.939693 0.341551
vn 0.307406 0.939693 -0.149932
vn 0.307406 0.939693 -0.149932
vn 0.307406 0.939693 -0.149932
vn 0.307406 0.939693 -0.149932
vn 0.307406 0.939693 -0.149932
vn 0.307406 0.939693 -0.149932
vn -0.307406 -0.939693 0.149932
vn -0.307406 -0.939693 0.149932
vn -0.307406 -0.939693 0.149932
vn -0.307406 -0.939693 0.149932
vn -0.307406 -0.939693 0.149932
vn -0.307406 -0.939693 0.149932
vn 0.246029 0.939693 0.237587
vn 0.246029 0.939693 0.237587
vn 0.246029 0.939693 0.237587
vn 0.246029 0.939693 0.237587
vn 0.246029 0.939693 0.237587
vn 0.246029 0.939693 0.237587
vn -0.246029 -0.939693 -0.237587
vn -0.246029 -0.939693 -0.237587
vn -0.246029 -0.939693 -0.237587
vn -0.246029 -0.939693 -0.237587
vn -0.246029 -0.939693 -0.237587
vn -0.246029 -0.939693 -0.237587
s off 
g plant 
usemtl initialShadingGroup 
f 1/1/1 2/2/2 3/3/3 
f 4/4/4 5/5/5 6/6/6 
f 7/7/7 8/8/8 9/9/9 
f 10/10/10 11/11/11 12/12/12 
f 13/13/13 14/14/14 15/15/15 
f 16/16/16 17/17/17 18/18/18 
f 19/19/19 20/20/20 21/21/21 
f 22/22/22 23/23/23 24/24/24 
f 25/25/25 26/26/26 27/27/27 
f 28/28/28 29/29/29 30/30/30 
f 31/31/31 32/32/32 33/33/33 
f 34/34/34 35/35/35 36/36/36 
f 37/37/37 38/38/38 39/39/39 
f 40/40/40 41/41/41 42/42/42 
f 43/43/43 44/44/44 45/45/45 
f 46/46/46 47/47/47 48/48/48 
f 49/49/49 50/50/50 51/51/51 
f 52/52/52 53/53/53 54/54/54 
f 55/55/55 56/56/56 57/57/57 
f 58/58/58 59/59/59 60/60/60 
f 61/61/61 62/62/62 63/63/63 
f 64/64/64 65/65/65 66/66/66 
f 67/67/67 68/68/68 69/69/69 
f 70/70/70 71/71/71 72/72/72 
f 73/73/73 74/74/74 75/75/75 
f 76/76/76 77/77/77 78/78/78 
