mtllib Bamboo 0.mtl
g default 
v -0.05 0 -0.05
v -0.05 3 -0.05
v 0.05 0 -0.05
v -0.05 3 -0.05
v 0.05 3 -0.05
v 0.05 0 -0.05
v 0.05 0 -0.05
v 0.05 3 -0.05
v 0 0 0.05
v 0.05 3 -0.05
v 0 3 0.05
v 0 0 0.05
v 0 0 0.05
v 0 3 0.05
v -0.05 0 -0.05
v 0 3 0.05
v -0.05 3 -0.05
v -0.05 0 -0.05

v -0.05 3 -0.05
v -0.05 6 -0.05
v 0.05 3 -0.05
v -0.05 6 -0.05
v 0.05 6 -0.05
v 0.05 3 -0.05
v 0.05 3 -0.05
v 0.05 6 -0.05
v 0 3 0.05
v 0.05 6 -0.05
v 0 6 0.05
v 0 3 0.05
v 0 3 0.05
v 0 6 0.05
v -0.05 3 -0.05
v 0 6 0.05
v -0.05 6 -0.05
v -0.05 3 -0.05

v 0 3 0
v -0.5 3 1.25
v 0.5 3 1.25
v -0.5 3 1.25
v 0 3 2.5
v 0.5 3 1.25
v 0 3 2.5
v -0.5 3 1.25
v 0.5 3 1.25
v -0.5 3 1.25
v 0 3 0
v 0.5 3 1.25

v 0 6 0
v 1.25 6 0.5
v 1.25 6 -0.5
v 1.25 6 0.5
v 2.5 6 1.49012e-07
v 1.25 6 -0.5
v 2.5 6 1.49012e-07
v 1.25 6 0.5
v 1.25 6 -0.5
v 1.25 6 0.5
v 0 6 0
v 1.25 6 -0.5

v 0 6 0
v 0.499999 6 -1.25
v -0.5 6 -1.25
v 0.499999 6 -1.25
v -5.96046e-07 6 -2.5
v -0.5 6 -1.25
v -5.96046e-07 6 -2.5
v 0.499999 6 -1.25
v -0.5 6 -1.25
v 0.499999 6 -1.25
v 0 6 0
v -0.5 6 -1.25

v 0 1 0
v -1.25 1 -0.5
v -1.25 1 0.5
v -1.25 1 -0.5
v -2.5 1 -2.98023e-07
v -1.25 1 0.5
v -2.5 1 -2.98023e-07
v -1.25 1 -0.5
v -1.25 1 0.5
v -1.25 1 -0.5
v 0 1 0
v -1.25 1 0.5

vt 0.3 1
vt 0.3 0
vt 0.7 1
vt 0.3 0
vt 0.7 0
vt 0.7 1
vt 0.7 1
vt 0.3 0
vt 0.7 1
vt 0.3 0
vt 0.7 0
vt 0.7 1
vt 0.3 1
vt 0.3 0
vt 0.7 1
vt 0.3 0
vt 0.7 0
vt 0.7 1
vt 0.3 1
vt 0.3 0
vt 0.7 1
vt 0.3 0
vt 0.7 0
vt 0.7 1
vt 0.7 1
vt 0.3 0
vt 0.7 1
vt 0.3 0
vt 0.7 0
vt 0.7 1
vt 0.3 1
vt 0.3 0
vt 0.7 1
vt 0.3 0
vt 0.7 0
vt 0.7 1
vt 0.5 1
vt 0 0.7
vt 1 0.7
vt 0 0.7
vt 0.5 0
vt 1 0.7
vt 0.5 0
vt 0 0.7
vt 1 0.7
vt 0 0.7
vt 0.5 1
vt 1 0.7
vt 0.5 1
vt 0 0.7
vt 1 0.7
vt 0 0.7
vt 0.5 0
vt 1 0.7
vt 0.5 0
vt 0 0.7
vt 1 0.7
vt 0 0.7
vt 0.5 1
vt 1 0.7
vt 0.5 1
vt 0 0.7
vt 1 0.7
vt 0 0.7
vt 0.5 0
vt 1 0.7
vt 0.5 0
vt 0 0.7
vt 1 0.7
vt 0 0.7
vt 0.5 1
vt 1 0.7
vt 0.5 1
vt 0 0.7
vt 1 0.7
vt 0 0.7
vt 0.5 0
vt 1 0.7
vt 0.5 0
vt 0 0.7
vt 1 0.7
vt 0 0.7
vt 0.5 1
vt 1 0.7
vn 0 0 -0.3
vn 0 0 -0.3
vn 0 0 -0.3
vn 0 0 -0.3
vn 0 0 -0.3
vn 0 0 -0.3
vn 0.2 0 0.1
vn 0.2 0 0.1
vn 0.2 0 0.1
vn 0.2 0 0.1
vn 0.2 0 0.1
vn 0.2 0 0.1
vn -0.2 0 0.1
vn -0.2 0 0.1
vn -0.2 0 0.1
vn -0.2 0 0.1
vn -0.2 0 0.1
vn -0.2 0 0.1
vn 0 0 -0.3
vn 0 0 -0.3
vn 0 0 -0.3
vn 0 0 -0.3
vn 0 0 -0.3
vn 0 0 -0.3
vn 0.2 0 0.1
vn 0.2 0 0.1
vn 0.2 0 0.1
vn 0.2 0 0.1
vn 0.2 0 0.1
vn 0.2 0 0.1
vn -0.2 0 0.1
vn -0.2 0 0.1
vn -0.2 0 0.1
vn -0.2 0 0.1
vn -0.2 0 0.1
vn -0.2 0 0.1
vn 0 1 0
vn 0 1 0
vn 0 1 0
vn 0 1 0
vn 0 1 0
vn 0 1 0
vn 0 -1 0
vn 0 -1 0
vn 0 -1 0
vn 0 -1 0
vn 0 -1 0
vn 0 -1 0
vn 0 1 0
vn 0 1 0
vn 0 1 0
vn 0 1 0
vn 0 1 0
vn 0 1 0
vn 0 -1 0
vn 0 -1 0
vn 0 -1 0
vn 0 -1 0
vn 0 -1 0
vn 0 -1 0
vn 0 1 0
vn 0 1 0
vn 0 1 0
vn 0 1 0
vn 0 1 0
vn 0 1 0
vn -0 -1 0
vn -0 -1 0
vn -0 -1 0
vn -0 -1 0
vn -0 -1 0
vn -0 -1 0
vn 0 1 0
vn 0 1 0
vn 0 1 0
vn 0 1 0
vn 0 1 0
vn 0 1 0
vn -0 -1 0
vn -0 -1 0
vn -0 -1 0
vn -0 -1 0
vn -0 -1 0
vn -0 -1 0
s off 
g plant 
g stem 
usemtl stemMat 
f 1/1/1 2/2/2 3/3/3 
f 4/4/4 5/5/5 6/6/6 
f 7/7/7 8/8/8 9/9/9 
f 10/10/10 11/11/11 12/12/12 
f 13/13/13 14/14/14 15/15/15 
f 16/16/16 17/17/17 18/18/18 
f 19/19/19 20/20/20 21/21/21 
f 22/22/22 23/23/23 24/24/24 
f 25/25/25 26/26/26 27/27/27 
f 28/28/28 29/29/29 30/30/30 
f 31/31/31 32/32/32 33/33/33 
f 34/34/34 35/35/35 36/36/36 
g leaves 
usemtl leafMat 
